# xmcd CD database file
#
# Track frame offsets:
#	150
#	16495
#	38470
#	54962
#	77890
#	99722
#	116375
#	138282
#	154322
#	178177
#	196752
#	222800
#
# Disc length: 3244 seconds
#
# Revision: 0
# Processed by: cddbd v1.5.1PL0 Copyright (c) Steve Scherf et al.
# Submitted via: CDex 1.51
#
DISCID=970caa0c
DTITLE=吉田知加 - −12の花−
DYEAR=2001
DGENRE=JPop
TTITLE0=こうぶつ
TTITLE1=倦怠犬−マンネリズム撲滅集より−
TTITLE2=RAIN is blind
TTITLE3=愛シニ来テ欲シイ
TTITLE4=旦那さんへ〜日頃の感謝を込めて〜
TTITLE5=がむしゃらな愛
TTITLE6=解放
TTITLE7=愛の巣
TTITLE8=痴人
TTITLE9=残骸−のこりもの−
TTITLE10=刹那系
TTITLE11=日向ぼっこ
EXTD=YEAR: 2001
EXTT0=
EXTT1=
EXTT2=
EXTT3=
EXTT4=
EXTT5=
EXTT6=
EXTT7=
EXTT8=
EXTT9=
EXTT10=
EXTT11=
PLAYORDER=
